<?xml version="1.0" standalone="no"?>
<!DOCTYPE svg PUBLIC "-//W3C//DTD SVG 20010904//EN"
 "http://www.w3.org/TR/2001/REC-SVG-20010904/DTD/svg10.dtd">
<svg version="1.0" xmlns="http://www.w3.org/2000/svg"
 width="460.000000pt" height="460.000000pt" viewBox="0 0 460.000000 460.000000"
 preserveAspectRatio="xMidYMid meet">
<metadata>
Created by potrace 1.14, written by Peter Selinger 2001-2017
</metadata>
<g transform="translate(0.000000,460.000000) scale(0.100000,-0.100000)"
fill="#000000" stroke="none">
<path d="M0 2300 l0 -2300 2300 0 2300 0 0 2300 0 2300 -2300 0 -2300 0 0
-2300z m2173 1168 c28 -22 32 -63 8 -87 -39 -39 -101 -16 -101 37 0 50 54 79
93 50z m-1308 -143 c160 -425 276 -732 285 -750 10 -22 60 -155 60 -161 0 -2
-21 -4 -47 -4 l-48 0 -51 143 -51 142 -243 0 -243 0 -29 -80 c-16 -44 -33 -89
-38 -100 -6 -11 -16 -38 -23 -60 -13 -38 -16 -40 -60 -43 -26 -2 -47 -1 -47 2
0 6 84 231 169 451 27 72 79 209 115 305 36 96 72 193 82 215 9 22 20 50 25
63 8 20 15 23 50 20 l41 -3 53 -140z m2010 -144 c43 -20 74 -50 97 -94 l14
-27 36 44 c66 79 182 116 296 95 86 -16 140 -57 169 -129 21 -53 22 -68 23
-357 l0 -303 -44 0 -45 0 -3 309 c-3 295 -4 311 -24 337 -35 48 -68 65 -132
71 -103 10 -196 -39 -233 -122 -17 -36 -19 -70 -19 -317 l0 -278 -50 0 -50 0
0 297 c0 279 -1 299 -21 339 -57 119 -263 110 -353 -14 l-31 -44 -3 -289 -3
-289 -44 0 -45 0 0 390 0 390 40 0 40 0 0 -55 c0 -30 3 -55 6 -55 3 0 14 10
24 23 74 94 238 129 355 78z m1201 16 c117 -25 191 -92 208 -189 l7 -38 -44 0
c-43 0 -45 1 -51 34 -8 43 -70 101 -123 115 -87 25 -179 7 -230 -44 -27 -27
-33 -41 -33 -75 0 -81 26 -100 198 -147 68 -18 141 -42 162 -53 50 -25 97 -76
111 -119 17 -49 5 -136 -24 -180 -51 -77 -190 -121 -318 -101 -143 22 -219 83
-244 198 l-7 32 45 0 c42 0 46 -2 52 -30 8 -38 48 -86 89 -107 46 -25 188 -24
244 1 58 26 86 73 79 132 -3 28 -13 55 -27 69 -26 27 -123 67 -217 89 -149 34
-222 93 -231 187 -11 117 64 201 202 229 60 12 84 11 152 -3z m-2176 -36 c0
-19 -20 -54 -64 -112 -35 -46 -143 -192 -241 -324 l-178 -240 257 -3 256 -2 0
-35 0 -35 -310 0 -310 0 0 33 c0 27 21 63 108 179 133 181 179 244 281 383
l81 110 -230 3 -230 2 0 35 0 35 290 0 290 0 0 -29z m280 -361 l0 -390 -45 0
-45 0 0 390 0 390 45 0 45 0 0 -390z m1280 -758 l5 -203 30 31 c59 62 203 77
295 30 50 -26 83 -70 109 -147 19 -57 21 -85 21 -343 l0 -280 -125 0 -125 0 0
265 c0 216 -3 271 -15 295 -26 51 -113 63 -172 25 l-23 -15 0 -285 0 -285
-125 0 -125 0 0 560 0 561 123 -3 122 -3 5 -203z m-1862 46 l3 -98 -161 0
-160 0 0 -430 0 -430 -125 0 -125 0 0 430 0 430 -155 0 -155 0 0 100 0 100
438 -2 437 -3 3 -97z m496 -173 c77 -20 136 -62 181 -131 51 -77 65 -129 65
-246 l0 -98 -241 0 -240 0 6 -22 c22 -73 75 -108 163 -108 67 0 123 18 159 52
l23 22 34 -40 c19 -21 43 -50 55 -63 12 -13 21 -28 21 -32 0 -4 -17 -21 -37
-38 -188 -155 -495 -115 -619 80 -72 114 -74 324 -5 457 23 44 94 118 133 138
82 42 205 54 302 29z m850 -20 c97 -46 166 -149 166 -247 l0 -39 -112 3 -112
3 -7 33 c-14 68 -77 104 -142 83 -50 -17 -70 -60 -75 -163 -10 -195 19 -258
118 -258 41 0 56 5 75 25 14 13 25 36 25 50 l0 25 115 0 115 0 0 -37 c0 -21
-9 -56 -19 -78 -59 -130 -210 -201 -373 -175 -170 26 -274 136 -300 320 -23
152 18 306 101 389 76 76 155 103 288 96 62 -3 96 -10 137 -30z"/>
<path d="M728 3243 c-99 -267 -168 -456 -168 -459 0 -2 94 -4 210 -4 116 0
210 2 210 5 0 2 -20 55 -44 117 -24 62 -70 186 -103 275 -32 90 -60 163 -63
163 -3 0 -22 -44 -42 -97z"/>
<path d="M1932 1725 c-22 -10 -39 -28 -52 -57 -32 -69 -34 -68 100 -68 l120 0
0 30 c0 47 -20 78 -62 94 -47 19 -63 19 -106 1z"/>
</g>
</svg>
