<?xml version="1.0" standalone="no"?>
<!DOCTYPE svg PUBLIC "-//W3C//DTD SVG 20010904//EN"
 "http://www.w3.org/TR/2001/REC-SVG-20010904/DTD/svg10.dtd">
<svg version="1.0" xmlns="http://www.w3.org/2000/svg"
 width="628.000000pt" height="628.000000pt" viewBox="0 0 628.000000 628.000000"
 preserveAspectRatio="xMidYMid meet">
<metadata>
Created by potrace 1.14, written by Peter Selinger 2001-2017
</metadata>
<g transform="translate(0.000000,628.000000) scale(0.100000,-0.100000)"
fill="#000000" stroke="none">
<path d="M2625 6103 c-16 -20 -34 -41 -40 -47 -18 -21 -35 -55 -35 -71 0 -8
-4 -15 -10 -15 -5 0 -10 -10 -10 -22 0 -15 -18 9 -49 67 l-50 89 -13 -29 c-7
-17 -42 -59 -78 -95 -37 -36 -78 -82 -92 -103 l-26 -39 -16 59 c-24 82 -37
113 -49 113 -6 0 -8 -3 -4 -6 3 -4 -11 -23 -32 -43 -53 -51 -144 -200 -155
-253 -2 -7 -8 -26 -15 -41 -6 -16 -8 -34 -5 -40 4 -7 -3 -2 -15 11 -18 18 -51
80 -56 102 -3 15 -27 50 -34 50 -5 0 -8 -11 -6 -25 1 -14 -2 -25 -7 -25 -5 0
-6 -4 -3 -10 3 -5 1 -10 -5 -10 -6 0 -8 -4 -5 -10 3 -5 2 -10 -3 -10 -5 0 -15
-12 -23 -27 -8 -16 -29 -49 -47 -75 -19 -27 -31 -48 -27 -48 4 0 1 -7 -6 -17
-8 -9 -13 -19 -13 -22 2 -7 -4 -27 -17 -59 -7 -18 -6 -21 3 -16 10 6 10 4 0
-8 -16 -20 -21 -65 -11 -95 6 -15 3 -23 -8 -27 -10 -4 -14 -2 -10 8 4 9 1 13
-6 10 -13 -5 -139 111 -129 120 3 3 -2 6 -10 6 -37 0 -30 -165 15 -356 3 -12
8 -38 11 -57 3 -20 6 -40 7 -44 4 -26 -5 -22 -36 13 -19 21 -35 44 -35 49 0 6
-5 3 -10 -5 -7 -11 -10 -12 -10 -2 0 7 -6 20 -14 28 -13 12 -14 0 -13 -90 1
-57 5 -102 9 -100 4 3 7 -4 7 -13 -1 -26 6 -67 13 -78 3 -6 9 -24 13 -42 11
-52 41 -107 82 -148 24 -25 30 -34 16 -26 -13 6 -23 9 -23 5 0 -3 -9 4 -20 17
-17 20 -21 22 -29 9 -10 -15 -4 -60 9 -70 7 -5 22 -43 20 -49 -1 -2 4 -7 11
-12 7 -4 14 -15 15 -24 1 -10 12 -24 23 -32 12 -8 21 -21 21 -29 0 -8 5 -14
10 -14 6 0 10 -4 10 -10 0 -5 15 -24 33 -41 l32 -31 -47 7 c-83 12 -88 2 -27
-58 30 -29 69 -63 87 -76 l33 -23 -28 -15 c-15 -8 -32 -18 -36 -22 -8 -8 51
-66 107 -106 26 -19 27 -21 13 -55 -7 -19 -13 -56 -13 -82 1 -27 -2 -48 -6
-48 -3 0 -2 -12 3 -27 4 -16 17 -67 28 -116 11 -48 32 -111 46 -140 28 -57
138 -167 185 -187 17 -7 30 -17 30 -22 0 -5 19 -28 43 -51 58 -59 150 -101
287 -131 74 -16 73 -12 19 -82 -27 -36 -49 -70 -49 -77 0 -7 -25 -23 -56 -37
-30 -13 -60 -30 -66 -37 -6 -7 -14 -10 -19 -7 -5 3 -9 0 -9 -6 0 -6 -11 -15
-25 -20 -14 -5 -25 -15 -25 -21 0 -7 -3 -9 -7 -6 -9 9 -33 -12 -33 -30 0 -8 3
-12 8 -10 4 3 8 -6 8 -19 1 -13 0 -24 -2 -24 -2 0 -24 19 -48 43 l-44 42 3 72
c4 95 -5 106 -84 109 -34 1 -64 3 -66 5 -2 3 -6 17 -9 32 -6 37 -13 45 -48 63
-19 10 -45 14 -67 11 l-36 -4 -2 96 c-1 53 -3 105 -4 116 -4 44 1 65 17 65 10
0 14 5 10 16 -3 8 -2 13 3 10 13 -8 27 15 30 50 2 24 -3 33 -26 45 -15 7 -32
20 -36 27 -5 7 -14 9 -20 6 -10 -6 9 19 51 64 13 14 8 132 -8 162 -4 8 -5 20
-3 27 2 6 -14 22 -36 35 -39 23 -70 26 -224 18 -10 -1 -31 -15 -48 -32 -26
-28 -29 -36 -23 -72 3 -23 6 -60 5 -84 0 -31 3 -41 12 -35 9 5 9 3 -1 -9 -10
-13 -8 -19 17 -39 22 -17 27 -27 19 -36 -6 -7 -15 -13 -20 -13 -16 0 -66 -61
-64 -77 2 -9 10 -21 19 -28 9 -7 14 -14 12 -17 -3 -3 1 -11 10 -18 8 -7 15 -8
15 -3 0 5 9 9 20 9 18 0 20 -6 17 -53 -3 -41 0 -53 12 -56 13 -4 12 -5 -3 -6
-11 -1 -16 -6 -13 -15 4 -9 -4 -16 -24 -20 -22 -4 -33 -14 -40 -36 -6 -16 -15
-28 -19 -25 -15 9 -67 -7 -92 -28 -40 -36 -56 -69 -53 -112 2 -40 2 -40 -34
-39 -39 1 -89 -13 -107 -31 -6 -5 -9 -33 -7 -60 2 -28 5 -92 6 -143 2 -51 8
-97 15 -104 6 -6 45 -10 97 -10 l86 1 -5 -277 c-5 -303 -5 -456 -2 -1187 l2
-490 38 -75 c52 -101 123 -210 137 -210 7 0 10 -2 7 -5 -6 -6 57 -75 68 -75 4
0 12 -7 19 -16 22 -31 59 -9 121 73 33 43 68 95 79 116 11 20 23 37 28 37 4 0
6 4 2 9 -3 6 3 14 12 20 10 6 15 11 11 11 -4 0 3 25 17 56 14 32 25 75 25 99
0 29 5 45 15 49 8 3 15 2 15 -3 0 -5 9 -11 20 -14 11 -3 24 -17 30 -31 5 -15
21 -31 35 -38 14 -6 25 -15 25 -20 0 -4 6 -8 13 -8 15 0 104 -59 142 -94 15
-14 42 -30 60 -36 l32 -11 -1 -97 c-2 -115 1 -120 95 -158 71 -29 187 -38 296
-23 32 5 87 12 123 15 36 4 82 13 103 20 20 7 37 10 37 6 0 -16 29 37 40 75
12 40 11 52 -15 115 -7 19 0 19 66 0 19 -5 46 -5 61 -1 15 4 29 4 32 1 3 -3 6
-1 6 5 0 13 59 26 128 28 45 2 52 -1 47 -14 -13 -34 -17 -138 -7 -158 7 -11
31 -31 54 -44 41 -22 54 -23 228 -23 211 0 267 5 365 34 38 11 71 20 72 20 9
0 23 77 17 98 -12 43 -12 49 -5 59 8 12 115 63 133 63 8 0 19 5 26 12 7 7 12
9 12 5 0 -3 18 0 40 8 22 8 44 14 48 15 13 0 77 22 109 36 17 8 34 14 39 14
15 0 114 53 114 61 0 5 5 9 10 9 17 0 69 52 85 84 9 16 18 47 21 68 4 21 11
38 16 38 5 0 7 4 4 8 -12 19 96 96 184 133 30 12 62 28 70 34 14 11 47 25 60
25 3 0 48 15 100 33 129 46 307 161 315 204 2 10 4 19 5 21 7 8 23 128 24 177
1 22 5 46 9 53 5 6 5 12 1 12 -4 0 0 8 9 18 8 9 17 24 19 32 2 8 12 24 23 35
11 11 43 47 70 80 28 33 52 62 55 65 3 3 16 19 28 36 l21 31 -38 59 c-38 58
-131 164 -144 164 -4 0 -33 20 -66 45 -32 25 -62 45 -66 45 -3 0 -25 13 -48
29 -69 47 -132 71 -255 98 -37 8 -76 16 -87 19 -11 2 -38 7 -60 10 -92 12
-112 15 -145 21 -19 3 -50 12 -68 20 -18 7 -37 11 -42 8 -5 -3 -12 0 -16 6 -5
8 -3 9 6 4 9 -5 11 -4 6 4 -4 6 -12 9 -17 5 -5 -3 -21 2 -34 10 -17 11 -25 13
-25 5 0 -8 -6 -6 -18 4 -9 9 -28 18 -42 20 -14 2 -33 7 -42 11 -9 4 -22 8 -30
10 -7 1 -20 6 -28 11 -8 5 -17 10 -20 10 -13 2 -76 39 -82 49 -5 6 -8 7 -8 1
-1 -14 -70 67 -70 81 0 6 -12 29 -27 50 -14 21 -27 46 -28 54 0 9 -4 21 -9 28
-4 6 -5 12 -2 12 3 0 -8 13 -24 29 -17 15 -30 37 -30 48 0 23 -63 90 -97 104
-13 5 -23 13 -23 19 0 6 5 8 10 5 6 -3 10 -1 10 5 0 20 -90 98 -120 105 -22 5
-32 14 -36 33 -10 42 -80 132 -103 132 -5 0 -11 4 -13 9 -1 5 -25 12 -53 14
-27 3 -52 6 -55 6 -3 1 15 13 40 28 25 15 47 29 50 32 6 7 40 29 59 38 48 22
187 186 174 206 -4 6 -1 7 7 2 10 -6 12 -4 7 7 -4 13 0 15 21 11 49 -9 112
-11 107 -4 -2 4 13 17 33 29 20 11 59 41 86 66 27 25 52 46 55 46 20 0 100
170 104 223 1 9 4 17 7 17 10 0 9 172 -1 226 -15 78 -17 89 -19 89 -2 0 -8 25
-16 66 -6 36 -6 37 22 31 16 -2 35 -9 42 -15 16 -13 27 -3 16 15 -5 7 -9 18
-9 23 -1 19 -37 95 -44 95 -4 0 -8 7 -8 15 0 8 4 12 9 9 12 -8 68 -14 68 -8 0
12 -31 64 -39 64 -4 0 -13 12 -20 26 -11 25 -9 26 38 47 59 24 57 42 -8 72
-27 12 -41 25 -41 37 0 10 4 18 10 18 5 0 24 17 42 37 18 20 44 47 57 60 13
12 21 29 18 36 -7 19 -57 28 -80 15 -25 -13 -29 -7 -13 24 8 15 17 39 20 55 4
15 9 39 12 53 7 37 8 146 0 158 -8 13 -34 5 -61 -19 -40 -35 -45 -29 -50 61
-3 47 -7 94 -8 105 -10 57 -19 111 -18 120 0 6 -8 19 -17 29 -13 15 -14 18 -2
11 12 -6 13 -5 2 6 -17 18 -41 3 -61 -39 -20 -40 -31 -40 -32 1 -3 59 -40 222
-50 213 -3 -3 -4 9 -2 27 3 17 1 28 -4 22 -8 -10 -25 -16 -55 -18 -10 -1 -20
-7 -22 -14 -3 -7 -12 -13 -21 -13 -8 0 -14 -3 -13 -7 3 -9 -55 -73 -66 -73 -3
0 -6 8 -6 18 0 47 -68 219 -94 241 -15 13 -18 12 -23 -7 -3 -12 -9 -22 -14
-22 -5 0 -9 -6 -9 -13 0 -15 -51 -120 -56 -115 -1 2 -4 23 -5 46 -2 24 -7 46
-11 48 -4 3 -8 11 -8 19 0 8 -9 30 -21 49 -18 32 -23 34 -41 23 -22 -12 -79
-72 -79 -81 1 -10 -44 -52 -51 -49 -5 2 -8 13 -8 23 0 10 -16 47 -35 82 -20
35 -41 73 -47 86 -17 33 -37 27 -84 -23 -23 -25 -39 -45 -36 -45 2 0 -1 -7 -8
-15 -10 -13 -16 -10 -39 16 -14 17 -41 47 -58 68 -18 20 -35 44 -39 54 -3 9
-10 17 -15 17 -11 0 -29 -41 -22 -52 2 -5 0 -8 -5 -8 -5 0 -13 -10 -17 -22 -4
-13 -8 -26 -10 -30 -1 -5 -3 -10 -4 -12 0 -2 -16 10 -34 27 -18 18 -31 35 -30
39 2 4 -1 9 -7 13 -5 3 -11 1 -11 -4 -1 -6 -3 -15 -4 -21 -1 -5 -3 -27 -4 -47
l-1 -37 -17 24 c-10 14 -17 28 -15 33 1 4 -1 6 -6 6 -19 -3 -33 2 -28 10 3 5
-1 11 -9 15 -8 3 -15 12 -15 21 0 8 -4 15 -8 15 -5 0 -15 11 -22 25 -31 57
-54 19 -51 -85 l2 -65 -24 25 c-14 14 -23 26 -22 28 1 1 -20 26 -46 55 -27 28
-49 55 -49 59 0 16 -16 6 -45 -29z"/>
</g>
</svg>
