<?xml version="1.0" standalone="no"?>
<!DOCTYPE svg PUBLIC "-//W3C//DTD SVG 20010904//EN"
 "http://www.w3.org/TR/2001/REC-SVG-20010904/DTD/svg10.dtd">
<svg version="1.0" xmlns="http://www.w3.org/2000/svg"
 width="600.000000pt" height="600.000000pt" viewBox="0 0 600.000000 600.000000"
 preserveAspectRatio="xMidYMid meet">
<metadata>
Created by potrace 1.14, written by Peter Selinger 2001-2017
</metadata>
<g transform="translate(0.000000,600.000000) scale(0.100000,-0.100000)"
fill="#000000" stroke="none">
<path d="M2639 5666 c-2 -2 -38 -6 -79 -10 -76 -6 -201 -27 -275 -46 -22 -6
-51 -13 -65 -16 -14 -2 -36 -9 -50 -14 -14 -5 -36 -12 -50 -14 -73 -14 -242
-74 -294 -104 -20 -12 -39 -22 -42 -22 -3 0 -31 -12 -62 -26 -31 -15 -62 -27
-68 -28 -5 -1 -20 -11 -33 -23 -13 -12 -35 -24 -49 -28 -14 -3 -38 -15 -53
-26 -15 -10 -31 -19 -36 -19 -5 0 -16 -9 -26 -20 -9 -11 -24 -20 -32 -20 -8 0
-15 -4 -15 -10 0 -5 -5 -10 -11 -10 -11 0 -149 -106 -161 -124 -4 -6 -8 -7 -8
-3 0 9 -7 3 -90 -75 -33 -31 -60 -55 -60 -54 0 2 -47 -44 -105 -102 -58 -58
-105 -108 -105 -112 0 -3 -20 -28 -45 -56 -40 -44 -70 -86 -167 -232 -15 -23
-28 -49 -28 -57 0 -8 -3 -15 -8 -15 -7 0 -9 -3 -51 -83 -14 -26 -29 -47 -33
-47 -4 0 -8 -6 -8 -12 0 -7 -13 -41 -30 -75 -16 -35 -32 -79 -36 -98 -3 -19
-10 -33 -14 -30 -10 6 -30 -40 -30 -68 0 -13 -6 -29 -12 -35 -7 -7 -13 -16
-13 -20 -1 -10 -35 -123 -45 -147 -5 -11 -11 -33 -15 -50 -3 -16 -10 -48 -16
-70 -19 -73 -50 -249 -55 -310 -1 -22 -6 -62 -9 -90 -22 -176 -1 -558 41 -725
4 -14 7 -35 8 -47 0 -13 4 -23 7 -23 4 0 10 -21 14 -47 4 -27 15 -73 25 -104
11 -31 22 -71 25 -90 3 -19 10 -35 16 -37 5 -2 9 -15 9 -28 0 -13 5 -24 10
-24 6 0 10 -8 10 -18 0 -10 6 -26 14 -37 15 -22 41 -96 38 -107 -1 -5 2 -8 7
-8 5 0 11 -8 15 -17 25 -73 92 -192 112 -200 7 -2 11 -10 8 -17 -3 -7 6 -28
20 -48 13 -20 22 -39 18 -42 -3 -3 -1 -6 5 -6 6 0 23 -21 39 -47 15 -27 39
-62 53 -80 57 -71 76 -97 83 -115 4 -11 12 -17 17 -13 5 3 12 -4 16 -15 3 -11
10 -20 15 -20 5 0 16 -12 24 -27 8 -16 15 -24 16 -20 0 4 22 -18 49 -50 53
-64 121 -131 121 -120 0 3 22 -16 48 -43 27 -28 54 -50 61 -50 6 0 14 -7 17
-15 4 -8 11 -15 16 -15 6 0 27 -14 47 -31 73 -61 83 -69 87 -69 8 0 89 -55 96
-65 4 -5 11 -10 15 -10 4 -1 28 -12 53 -25 25 -13 48 -23 53 -22 4 1 7 -2 7
-7 0 -6 21 -21 47 -34 27 -13 57 -28 68 -34 68 -36 172 -77 218 -87 15 -4 25
-11 22 -16 -3 -6 -3 -10 2 -11 33 -3 168 -41 208 -59 46 -20 170 -50 208 -50
14 0 37 -4 50 -9 14 -6 71 -15 127 -21 57 -6 119 -13 139 -16 49 -5 287 -5
314 1 12 2 60 7 105 9 46 3 102 11 124 16 22 6 42 9 45 6 3 -3 14 -1 23 4 10
5 35 12 56 15 22 4 49 8 61 10 12 2 51 10 85 19 35 8 76 17 91 20 16 3 34 9
40 14 7 4 38 17 70 27 31 11 57 22 57 25 0 4 14 7 31 7 17 0 34 5 37 10 4 6
27 19 52 28 49 19 132 57 140 65 8 8 69 41 75 40 3 0 15 6 28 15 55 38 127 83
127 79 0 -2 9 5 21 17 11 11 36 27 55 35 19 8 34 19 34 24 0 6 12 16 28 22 15
7 36 22 48 33 36 36 74 65 84 65 6 0 10 3 10 8 0 4 10 18 21 32 11 14 17 18
13 10 -4 -8 45 38 109 102 65 64 117 114 117 110 0 -4 5 1 11 11 5 9 7 22 4
27 -3 6 0 10 7 10 8 0 25 14 38 31 14 16 38 46 54 65 15 19 25 34 22 34 -3 0
2 9 12 19 44 49 57 68 84 121 7 14 21 31 30 38 10 7 18 19 18 27 0 7 3 15 8
17 4 2 18 25 32 51 14 27 33 57 43 68 10 10 14 19 10 19 -4 0 -2 5 5 12 7 7
12 19 12 28 0 9 17 50 38 91 53 104 89 192 98 234 3 18 34 119 50 165 14 41
32 124 38 176 4 36 16 44 69 44 57 0 195 26 212 40 5 4 13 9 18 9 4 0 21 8 37
16 16 8 32 15 36 14 3 0 9 3 12 7 4 4 1 4 -5 0 -7 -4 -13 -5 -13 -2 0 3 16 12
35 20 19 8 34 21 33 28 -2 7 3 12 10 10 7 -1 15 6 19 15 4 10 17 29 30 42 62
63 102 222 81 321 -5 25 -9 51 -10 58 -1 6 -5 12 -10 12 -4 0 -8 7 -8 16 0 45
-99 170 -126 160 -12 -5 -15 -2 -10 9 4 10 -4 21 -24 33 -16 9 -44 26 -62 36
-18 11 -46 21 -63 24 -16 2 -38 8 -49 14 -11 6 -60 13 -108 16 -49 3 -91 8
-93 12 -2 4 -7 30 -9 57 -3 27 -8 56 -10 64 -3 8 -8 25 -10 39 -11 55 -37 146
-47 164 -6 10 -12 26 -14 35 -2 12 -20 76 -30 111 -1 3 -11 27 -23 53 -12 27
-22 55 -22 63 0 8 -4 14 -9 14 -5 0 -12 14 -16 30 -4 17 -11 27 -16 24 -6 -3
-9 0 -7 7 4 21 -40 115 -71 153 -7 9 -10 16 -7 16 4 0 -2 13 -13 29 -12 16
-21 32 -21 37 0 4 -11 22 -25 40 -14 18 -25 37 -25 41 0 5 -13 24 -30 43 -16
19 -29 41 -30 48 0 6 -3 12 -7 12 -5 0 -20 19 -35 43 -15 23 -41 55 -58 70
-16 16 -30 33 -30 37 0 5 -10 20 -22 33 -13 14 -39 43 -58 65 -25 29 -38 37
-47 30 -9 -7 -11 -4 -8 11 2 12 0 21 -6 21 -5 0 -9 7 -9 15 0 8 -5 15 -10 15
-6 0 -28 17 -49 38 -53 53 -131 116 -147 120 -7 2 -16 12 -19 23 -4 11 -18 24
-31 29 -13 5 -24 14 -24 20 0 5 -7 10 -15 10 -8 0 -15 4 -15 9 0 5 -11 12 -25
15 -14 4 -24 11 -22 17 1 6 -6 13 -17 14 -10 2 -28 13 -40 24 -12 12 -26 21
-30 21 -4 0 -22 11 -39 24 -29 22 -268 146 -292 152 -5 1 -37 15 -70 30 -33
15 -65 28 -70 29 -32 7 -151 51 -156 58 -3 5 -9 8 -13 7 -6 -1 -30 3 -86 16
-14 3 -33 7 -42 7 -9 1 -15 4 -12 7 5 5 -137 34 -226 46 -25 3 -63 9 -85 13
-41 8 -508 14 -516 7z m431 -240 c52 -4 113 -11 135 -16 49 -10 150 -31 179
-36 12 -2 50 -11 86 -19 36 -9 70 -17 75 -18 6 -2 17 -7 25 -12 8 -5 17 -10
20 -10 24 -2 100 -29 100 -36 0 -5 6 -9 14 -9 7 0 31 -8 52 -17 22 -9 44 -18
49 -19 14 -3 57 -22 75 -33 8 -6 28 -12 43 -16 15 -3 25 -10 22 -15 -3 -6 1
-10 9 -10 19 0 59 -21 139 -73 32 -21 64 -34 70 -31 7 4 9 4 5 -1 -8 -8 28
-45 44 -45 5 0 38 -25 75 -55 36 -30 71 -53 77 -52 6 1 10 -3 9 -10 -1 -6 12
-22 30 -36 32 -24 86 -77 118 -114 8 -10 39 -40 67 -66 29 -26 58 -60 66 -75
8 -15 26 -38 40 -51 14 -13 23 -28 19 -34 -3 -6 -2 -8 3 -5 5 2 20 -7 34 -20
14 -14 18 -22 10 -18 -8 4 -7 1 3 -7 10 -9 17 -18 16 -22 -2 -8 58 -110 81
-138 8 -10 14 -20 13 -22 -2 -3 6 -14 17 -25 12 -12 18 -25 15 -30 -4 -6 1
-13 9 -16 9 -3 16 -10 16 -15 0 -5 18 -46 40 -91 22 -46 48 -107 58 -136 10
-28 21 -50 23 -47 3 2 5 -4 6 -15 1 -11 8 -34 17 -52 8 -18 17 -47 19 -64 3
-17 11 -42 18 -55 7 -13 14 -31 15 -39 10 -70 29 -152 36 -156 12 -8 10 -21
-7 -37 -12 -13 -57 -15 -250 -16 -129 -1 -241 -4 -248 -7 -21 -8 -43 26 -62
96 -9 36 -23 76 -30 90 -35 72 -50 104 -50 110 0 6 -18 46 -47 104 -6 10 -19
35 -30 55 -12 20 -29 53 -40 73 -11 20 -26 42 -34 49 -8 6 -14 17 -14 25 0 7
-16 30 -35 51 -19 21 -35 41 -35 45 0 7 -37 49 -127 145 -35 37 -63 71 -63 75
0 5 -3 7 -7 5 -5 -3 -14 1 -21 9 -7 8 -9 14 -5 14 4 0 0 5 -10 11 -9 5 -22 7
-29 3 -6 -4 -8 -3 -5 2 3 6 3 14 -1 19 -12 17 -89 74 -103 77 -8 2 -22 13 -32
26 -10 12 -23 22 -29 22 -5 0 -28 14 -49 31 -21 17 -39 28 -39 25 0 -2 -30 13
-67 35 -37 21 -73 39 -79 39 -7 0 -39 13 -71 29 -33 17 -82 35 -109 41 -27 6
-60 17 -74 24 -14 8 -50 19 -80 25 -30 7 -69 17 -86 22 -16 5 -73 12 -125 15
-89 6 -121 10 -126 14 -3 2 -15 6 -29 9 -4 0 -1 7 5 14 8 10 7 18 -2 31 -10
14 -27 18 -73 18 -94 1 -93 1 -100 -37 -3 -19 -10 -35 -16 -35 -5 0 -7 -4 -4
-9 3 -4 -13 -5 -37 0 -42 8 -102 1 -220 -27 -32 -8 -71 -14 -87 -14 -16 0 -31
-4 -34 -9 -3 -4 -38 -16 -78 -26 -40 -9 -89 -25 -108 -35 -20 -10 -44 -20 -55
-22 -11 -1 -27 -11 -36 -20 -9 -10 -24 -18 -32 -18 -22 0 -107 -41 -131 -62
-10 -10 -22 -15 -27 -13 -4 3 -14 -1 -22 -9 -8 -9 -30 -24 -48 -34 -19 -11
-33 -25 -32 -31 2 -6 -3 -10 -10 -8 -6 1 -11 -3 -10 -10 2 -8 -4 -10 -14 -6
-12 5 -14 3 -8 -7 6 -10 4 -12 -9 -7 -10 4 -24 -1 -36 -13 -11 -11 -17 -20
-13 -20 5 0 0 -5 -10 -11 -9 -6 -15 -14 -12 -20 3 -5 0 -6 -8 -3 -8 3 -39 -20
-75 -54 -34 -33 -63 -57 -65 -55 -3 2 -11 -7 -20 -21 -9 -13 -32 -41 -52 -62
-20 -22 -52 -64 -72 -94 -20 -30 -43 -59 -50 -63 -7 -5 -11 -12 -8 -18 4 -5 0
-12 -8 -15 -8 -3 -22 -23 -32 -45 -10 -21 -22 -39 -27 -39 -4 0 -8 -6 -8 -14
0 -7 -7 -19 -15 -26 -8 -7 -13 -16 -10 -20 3 -4 -2 -13 -9 -20 -14 -11 -32
-66 -28 -82 1 -5 -2 -8 -6 -8 -9 0 -30 -40 -28 -50 0 -3 -7 -18 -17 -33 -9
-15 -15 -27 -12 -27 3 0 -4 -24 -16 -52 -11 -29 -22 -62 -24 -73 -3 -11 -21
-87 -40 -169 -30 -120 -34 -151 -23 -157 12 -8 1309 -11 3308 -8 1309 2 1248
3 1306 -26 74 -36 95 -64 110 -149 3 -16 0 -50 -7 -75 -12 -45 -54 -112 -67
-108 -4 1 -25 -9 -46 -22 l-39 -25 -566 -3 c-311 -2 -569 -7 -572 -11 -4 -4
-12 -29 -18 -57 -12 -52 -39 -149 -49 -175 -3 -8 -6 -20 -7 -25 -6 -28 -68
-172 -79 -185 -8 -8 -19 -32 -26 -52 -6 -21 -16 -38 -22 -38 -6 0 -8 -3 -5 -7
4 -3 0 -15 -10 -25 -9 -10 -13 -18 -9 -18 4 0 -7 -20 -24 -44 -16 -25 -30 -49
-30 -55 0 -6 -4 -11 -10 -11 -5 0 -23 -20 -38 -45 -16 -25 -32 -42 -37 -38 -4
5 -5 2 -1 -5 5 -9 -24 -45 -88 -108 -53 -53 -96 -99 -96 -102 0 -7 -52 -41
-82 -54 -10 -4 -18 -12 -18 -17 0 -5 -9 -13 -20 -16 -11 -4 -18 -10 -16 -14 3
-4 0 -8 -7 -8 -17 0 -67 -33 -67 -45 0 -5 -4 -7 -10 -3 -5 3 -18 -3 -30 -15
-11 -11 -20 -18 -20 -15 0 3 -35 -13 -77 -34 -43 -22 -91 -43 -108 -47 -16 -4
-34 -10 -40 -14 -5 -5 -23 -10 -40 -13 -16 -3 -52 -13 -80 -21 -75 -24 -192
-47 -265 -52 -36 -2 -85 -6 -109 -8 -77 -6 -309 15 -381 34 -19 5 -50 10 -67
12 -18 1 -33 7 -33 12 0 5 -3 7 -6 3 -4 -3 -23 0 -43 8 -20 7 -45 16 -56 21
-11 4 -29 9 -40 11 -10 2 -22 7 -25 12 -3 5 -25 15 -49 22 -58 17 -183 83
-174 92 3 4 -1 7 -10 7 -8 0 -22 6 -29 12 -7 7 -52 39 -100 72 -48 32 -85 63
-82 67 3 5 1 9 -5 9 -6 0 -35 25 -66 55 -31 30 -62 52 -67 48 -7 -4 -8 -1 -4
6 5 7 0 18 -10 26 -11 8 -15 15 -11 15 8 0 -19 38 -56 80 -8 8 -24 29 -37 47
-13 18 -28 29 -34 26 -6 -4 -4 2 4 12 8 10 10 16 5 13 -6 -4 -23 20 -39 53
-15 32 -32 59 -37 59 -5 0 -9 4 -9 9 0 6 -18 49 -41 98 -22 48 -42 97 -44 108
-5 37 -17 75 -24 75 -5 0 -14 33 -21 73 -7 39 -16 77 -20 82 -4 6 -10 33 -13
60 -4 28 -9 60 -11 73 -3 13 -8 53 -11 90 -3 37 -8 80 -11 95 l-6 29 -82 -7
c-44 -4 -89 -11 -98 -16 -9 -5 -23 -6 -31 -3 -19 7 -30 -25 -23 -68 3 -18 8
-58 11 -88 7 -75 60 -317 73 -333 6 -7 13 -29 15 -48 2 -19 9 -44 16 -57 6
-12 9 -22 5 -22 -3 0 3 -16 15 -36 12 -19 21 -42 21 -50 0 -8 5 -14 10 -14 6
0 10 -8 10 -18 0 -9 8 -33 19 -52 10 -19 19 -39 21 -45 4 -17 20 -48 45 -90
14 -22 35 -59 47 -82 12 -24 26 -43 30 -43 4 0 8 -6 8 -14 0 -7 19 -33 41 -57
23 -24 38 -38 34 -30 -5 9 -4 12 3 7 6 -3 9 -15 7 -26 -2 -12 0 -18 6 -15 5 4
9 1 9 -5 0 -6 16 -26 35 -46 19 -19 35 -39 35 -44 0 -6 4 -10 10 -10 13 0 79
-67 72 -74 -3 -3 2 -6 11 -6 9 0 21 -9 27 -20 6 -11 18 -20 27 -20 9 0 14 -3
10 -6 -10 -10 52 -56 65 -48 7 4 10 4 7 0 -9 -10 34 -52 74 -72 18 -9 36 -23
40 -30 4 -8 15 -14 24 -14 8 0 41 -16 73 -35 32 -19 63 -35 69 -35 6 0 11 -4
11 -10 0 -5 8 -10 19 -10 10 0 30 -9 44 -20 15 -12 29 -21 32 -21 5 0 25 -5
53 -15 9 -4 24 -8 32 -9 8 -2 40 -13 70 -25 78 -30 103 -38 118 -33 7 3 19 0
27 -7 8 -6 36 -12 62 -13 26 -1 54 -6 62 -11 14 -9 323 -28 344 -21 7 2 62 6
122 9 61 3 125 10 143 15 18 5 35 10 37 10 3 0 15 3 28 6 12 3 31 7 42 9 11 1
27 5 35 8 46 16 88 28 111 32 14 2 45 14 67 25 23 12 51 21 62 21 14 0 19 4
14 12 -4 7 -3 8 5 4 6 -4 18 -3 25 3 22 18 168 91 182 91 8 0 14 5 14 10 0 6
5 10 10 10 6 0 16 5 23 10 7 6 29 23 49 39 21 15 34 32 30 35 -4 4 -2 7 3 5
18 -4 59 18 84 45 14 14 28 26 32 26 11 0 179 168 179 180 0 5 6 10 14 10 8 0
17 9 21 19 3 11 12 22 20 25 8 3 15 12 15 19 0 8 10 25 23 39 13 14 43 56 67
94 24 38 48 72 54 76 6 4 7 8 2 8 -4 0 3 15 16 33 13 17 37 59 52 92 15 33 34
73 42 88 8 16 14 35 14 43 0 8 7 31 17 52 9 20 15 40 15 44 -1 5 2 8 7 8 10 0
24 43 26 77 0 12 4 25 8 29 10 11 546 13 553 3 3 -5 -2 -34 -10 -63 -9 -30
-17 -66 -18 -80 -1 -14 -6 -26 -10 -26 -4 0 -7 -3 -7 -7 1 -5 0 -11 -1 -15 -4
-14 -6 -23 -15 -63 -4 -22 -21 -67 -36 -101 -16 -34 -29 -66 -29 -73 0 -6 -14
-37 -30 -68 -17 -31 -30 -61 -30 -67 0 -14 -46 -105 -64 -125 -7 -9 -22 -34
-31 -56 -10 -22 -29 -55 -42 -73 -13 -17 -21 -37 -17 -44 4 -7 3 -8 -5 -4 -6
4 -14 -1 -19 -12 -8 -20 -43 -69 -79 -108 -13 -14 -23 -27 -23 -30 0 -3 -18
-22 -40 -44 -22 -22 -40 -44 -40 -50 0 -6 -4 -8 -10 -5 -5 3 -10 2 -10 -4 0
-6 -19 -29 -42 -52 -24 -23 -43 -47 -43 -53 -1 -6 -6 -10 -13 -9 -6 2 -19 -8
-28 -22 -9 -14 -20 -25 -25 -25 -5 0 -38 -29 -73 -65 -35 -36 -69 -65 -75 -65
-5 0 -18 -9 -28 -19 -25 -27 -214 -151 -230 -151 -7 0 -13 -4 -13 -10 0 -5 -6
-10 -14 -10 -7 0 -19 -7 -26 -15 -7 -9 -15 -13 -18 -10 -3 3 -12 -1 -21 -9
-25 -23 -132 -77 -141 -71 -4 3 -10 -2 -13 -10 -4 -8 -15 -12 -27 -10 -11 2
-20 0 -20 -6 0 -5 -5 -9 -10 -9 -6 0 -29 -9 -53 -19 -23 -11 -53 -21 -67 -24
-14 -2 -45 -12 -70 -20 -90 -32 -196 -60 -235 -63 -22 -2 -71 -8 -110 -13 -38
-6 -99 -15 -135 -20 -64 -9 -442 -7 -457 2 -4 3 -30 8 -58 11 -92 10 -137 18
-230 42 -11 2 -42 9 -68 14 -27 5 -54 13 -60 17 -13 8 -24 11 -79 20 -21 3
-38 10 -38 14 0 5 -8 9 -17 9 -10 0 -40 11 -68 25 -27 13 -57 25 -66 25 -8 0
-19 4 -25 9 -5 6 -61 35 -124 67 -63 31 -127 66 -141 77 -15 10 -32 16 -38 12
-6 -3 -10 -2 -9 3 3 9 -127 112 -141 112 -4 0 -16 9 -26 20 -10 11 -24 20 -32
20 -8 0 -11 5 -8 10 3 6 0 10 -7 10 -8 0 -33 18 -56 40 -22 22 -46 40 -52 40
-5 0 -10 4 -10 10 0 5 -16 20 -36 34 -19 13 -34 25 -33 27 4 5 -39 53 -105
120 -27 27 -46 49 -43 49 3 0 -11 19 -33 42 -21 23 -36 46 -34 50 3 4 1 8 -5
8 -5 0 -24 24 -41 54 -17 30 -34 56 -38 58 -11 5 -82 116 -82 128 0 10 -7 20
-36 53 -6 7 -9 18 -6 25 2 7 -4 22 -14 33 -9 10 -14 19 -11 19 7 0 -18 48 -53
105 -10 17 -19 42 -19 57 -1 14 -5 28 -11 30 -5 2 -11 12 -13 23 -2 11 -11 36
-19 55 -9 19 -21 60 -28 90 -6 30 -18 69 -25 85 -17 37 -43 152 -49 220 -3 28
-9 75 -13 105 -4 30 -8 156 -8 280 0 232 19 418 52 523 8 26 12 54 9 62 -3 8
-1 17 4 20 7 4 22 63 24 97 1 4 7 13 14 19 6 7 12 26 12 41 0 16 4 36 9 46 21
41 45 98 48 114 3 18 82 181 150 308 22 42 67 112 100 155 33 44 73 99 90 122
16 24 33 40 36 36 4 -3 7 -1 7 5 0 6 52 63 116 126 76 76 113 120 108 128 -6
10 -5 10 7 1 12 -10 17 -8 26 6 12 19 206 168 283 217 25 16 48 32 51 37 3 4
16 9 27 10 12 1 22 4 22 7 0 3 21 17 48 30 26 14 53 29 61 34 7 6 20 11 29 12
17 3 84 36 92 45 4 5 41 16 80 24 3 0 28 11 55 24 28 13 69 25 92 28 24 3 41
9 38 13 -2 4 11 7 29 8 18 1 45 6 61 12 34 13 99 28 151 34 21 3 71 10 109 16
39 7 124 14 190 16 66 3 127 6 135 7 20 4 93 1 210 -7z m-41 -786 c48 -6 113
-17 146 -26 33 -8 74 -17 90 -20 17 -3 50 -14 75 -23 25 -10 63 -24 85 -31 22
-7 72 -29 110 -48 39 -19 85 -42 103 -50 17 -9 32 -20 32 -24 0 -4 6 -8 13 -8
8 0 22 -9 32 -20 10 -11 22 -20 28 -20 5 0 26 -13 47 -30 21 -16 40 -30 43
-30 4 0 33 -27 66 -60 33 -33 65 -60 71 -60 5 0 10 -5 10 -11 0 -7 10 -22 23
-34 12 -12 32 -35 45 -51 58 -76 74 -94 81 -89 4 2 8 -1 8 -8 0 -7 28 -58 61
-114 34 -56 62 -109 62 -117 0 -8 7 -22 16 -30 8 -9 13 -16 9 -16 -3 0 1 -10
9 -22 9 -12 16 -32 16 -43 0 -12 5 -26 10 -31 15 -15 46 -106 43 -124 -3 -13
-130 -15 -1081 -13 -592 2 -1279 4 -1527 5 l-450 3 -3 27 c-2 15 4 40 12 56
14 27 26 70 28 100 1 6 7 12 15 12 7 0 12 3 11 8 -3 17 37 104 69 148 13 17
23 36 23 42 0 6 6 17 13 24 16 17 50 78 43 78 -3 0 8 14 24 32 16 17 26 36 23
41 -3 6 -2 7 4 4 9 -6 18 4 83 87 16 21 30 36 30 33 0 -3 15 8 33 24 17 17 47
42 64 56 18 14 30 30 26 36 -3 6 -1 7 5 3 7 -4 12 -2 12 5 0 7 3 10 6 6 3 -3
15 3 27 14 11 10 27 19 34 19 7 0 13 7 13 15 0 8 3 14 8 13 13 -4 52 13 52 23
0 5 7 9 15 9 8 0 15 4 15 8 0 10 55 42 82 47 12 3 25 10 30 17 4 7 8 9 8 5 0
-5 7 -1 16 7 8 9 23 16 33 16 9 0 22 5 29 12 7 7 12 8 12 4 0 -5 6 -3 14 3 19
16 147 61 174 61 13 0 35 6 50 14 15 7 52 16 82 20 30 4 75 10 100 15 65 12
310 13 409 1z m-1824 -3580 c-3 -5 -12 -10 -18 -10 -7 0 -6 4 3 10 19 12 23
12 15 0z"/>
<path d="M3373 3176 c-29 -7 -53 -10 -53 -7 0 3 -6 -1 -13 -10 -7 -9 -23 -19
-37 -22 -38 -9 -95 -65 -135 -131 -36 -60 -38 -79 -7 -60 86 52 177 91 228 98
76 11 134 10 147 -3 6 -6 18 -11 26 -11 20 0 142 -61 173 -88 26 -21 28 -1 3
47 -32 63 -110 145 -130 138 -8 -4 -15 -2 -15 3 0 9 -49 34 -85 43 -11 3 -27
7 -35 10 -8 3 -39 0 -67 -7z m-115 -111 c-3 -3 -9 2 -12 12 -6 14 -5 15 5 6 7
-7 10 -15 7 -18z m12 -19 c0 -2 -7 -7 -16 -10 -8 -3 -12 -2 -9 4 6 10 25 14
25 6z"/>
<path d="M2249 3169 c-25 -4 -54 -12 -65 -17 -16 -9 -43 -19 -59 -22 -6 -2
-85 -82 -85 -87 0 -2 -9 -14 -20 -26 -40 -42 -66 -113 -32 -86 69 56 196 106
272 108 66 2 200 -26 200 -42 0 -4 4 -6 8 -3 5 3 34 -10 65 -29 59 -36 70 -31
43 19 -13 25 -89 109 -118 131 -56 42 -141 64 -209 54z"/>
<path d="M1530 2820 c-10 -6 -8 -42 1 -50 4 -3 9 -21 12 -40 3 -19 10 -47 16
-62 6 -16 8 -28 5 -28 -4 0 -1 -6 5 -13 6 -8 8 -17 4 -20 -3 -4 -2 -7 4 -7 6
0 14 -17 18 -37 3 -21 15 -56 25 -78 10 -22 20 -47 22 -55 2 -8 11 -23 21 -34
9 -11 17 -26 17 -34 0 -8 10 -28 22 -45 13 -18 23 -34 23 -37 0 -10 32 -50 36
-45 3 2 5 -4 6 -14 2 -20 65 -93 153 -177 95 -91 112 -105 118 -99 3 3 16 -4
28 -16 27 -25 50 -40 114 -70 25 -12 56 -29 69 -38 13 -8 31 -16 39 -17 8 -2
18 -8 22 -14 5 -8 96 -29 128 -30 2 0 0 -6 -4 -12 -4 -7 -4 -10 0 -6 4 3 22 2
39 -3 95 -29 188 -40 357 -44 157 -3 220 4 320 33 30 9 60 17 65 18 6 1 12 3
15 4 3 1 16 3 30 4 14 2 43 10 65 20 87 38 111 49 136 62 14 7 29 11 33 7 3
-3 6 -1 6 5 0 6 16 19 35 28 19 9 35 21 35 26 0 5 5 6 10 3 6 -3 10 -1 10 5 0
6 4 9 8 6 11 -6 93 59 85 68 -3 3 3 6 13 6 11 0 49 28 85 63 73 70 151 155
132 143 -9 -5 -11 -2 -7 9 4 9 9 13 12 10 6 -5 29 25 30 39 0 5 4 12 9 15 12
8 73 98 73 107 0 4 15 39 34 78 41 86 72 169 82 216 3 19 12 46 19 60 7 14 15
40 18 58 l7 32 -658 2 c-1507 3 -1994 3 -2002 -2z m2313 -259 c9 -9 -17 -67
-62 -136 -34 -52 -34 -52 -81 -108 -22 -27 -40 -52 -40 -58 0 -5 -4 -9 -9 -9
-5 0 -24 -14 -42 -31 -19 -18 -51 -42 -71 -56 -21 -13 -38 -28 -38 -34 0 -6
-7 -8 -15 -5 -9 3 -18 -1 -21 -8 -3 -8 -23 -22 -45 -30 -21 -9 -39 -20 -39
-26 0 -5 -6 -7 -14 -4 -8 3 -17 1 -21 -5 -3 -6 -15 -11 -25 -11 -10 0 -20 -5
-22 -10 -2 -6 -16 -13 -32 -16 -16 -3 -36 -9 -46 -14 -9 -5 -54 -19 -100 -31
-71 -19 -113 -22 -250 -23 -91 -1 -193 2 -227 7 -77 9 -222 50 -290 83 -28 13
-57 24 -62 24 -6 0 -11 5 -11 10 0 6 -8 13 -17 17 -46 17 -120 76 -240 192
-56 54 -163 232 -163 271 0 14 8 20 33 22 78 7 1942 -3 1950 -11z"/>
</g>
</svg>
